<?xml version="1.0" encoding="utf-8"?>
<svg viewBox="-6.675 141.283 903.826 222.996" width="903.826px" height="222.996px" xmlns="http://www.w3.org/2000/svg" xmlns:bx="https://boxy-svg.com"><defs><bx:export><bx:file format="svg"/></bx:export><path id="path-0" d="M 69.176 27.881 C 208.128 -41.168 334.34 -58.861 460.765 -76.691 C 522.269 -79.472 553.341 -83.297 580.355 -75.578 C 590.034 -72.813 599.8 -68.976 605.942 -60.56 C 613.002 -50.885 615.522 -39.411 617.066 -27.742 C 617.845 -21.857 617.971 -15.868 617.623 -9.943 C 617.042 -0.07 616.206 9.837 614.285 19.538 C 602.592 78.588 611.267 11.451 592.036 77.386 C 557.149 125.866 552.804 134.276 528.069 148.584 C 495.31 167.533 456.504 171.38 419.603 170.833 C 344.619 169.723 276.228 145.648 206.01 122.997 L 182.092 111.873 C 174.861 107.608 167.414 103.69 160.399 99.079 C 154.417 95.149 148.71 90.799 143.155 86.286 C 139.326 83.175 130.932 76.35 129.806 70.155 C 128.932 65.349 138.697 57.602 139.818 56.805 C 155.912 45.361 174.467 40.852 192.104 32.887" style="fill: none;"/></defs><path d="M 104.468 160.589 Q 112.581 156.871 120.694 160.589 L 185.596 190.336 Q 193.709 194.054 195.712 202.409 L 211.742 269.25 Q 213.745 277.605 208.131 284.305 L 163.218 337.907 Q 157.603 344.607 148.599 344.607 L 76.563 344.607 Q 67.559 344.607 61.944 337.907 L 17.031 284.305 Q 11.417 277.605 13.42 269.25 L 29.45 202.409 Q 31.453 194.054 39.566 190.336 Z" style="fill-opacity: 0; fill: rgb(255, 255, 255); stroke-width: 27px; stroke: rgb(255, 255, 255);" bx:shape="n-gon 112.581 255.629 103.766 98.758 7 0.1 1@93b8f8ad"/><g><path d="M 281.388 297.739 C 307.588 297.739 320.295 284.639 320.295 269.312 C 320.295 235.645 266.978 247.304 266.978 230.405 C 266.978 224.641 271.825 219.925 284.401 219.925 C 292.523 219.925 301.3 222.283 309.815 227.13 L 316.365 211.017 C 307.85 205.646 296.06 202.895 284.532 202.895 C 258.463 202.895 245.887 215.864 245.887 231.453 C 245.887 265.513 299.204 253.723 299.204 270.884 C 299.204 276.517 294.095 280.709 281.519 280.709 C 270.515 280.709 258.987 276.779 251.258 271.146 L 244.053 287.128 C 252.175 293.416 266.847 297.739 281.388 297.739 Z M 367.442 297.215 C 382.245 297.215 393.904 290.665 399.013 279.399 L 383.162 270.753 C 379.363 277.565 373.73 280.447 367.311 280.447 C 356.962 280.447 348.84 273.242 348.84 260.928 C 348.84 248.614 356.962 241.409 367.311 241.409 C 373.73 241.409 379.363 244.422 383.162 251.103 L 399.013 242.588 C 393.904 231.06 382.245 224.641 367.442 224.641 C 344.517 224.641 328.142 239.706 328.142 260.928 C 328.142 282.15 344.517 297.215 367.442 297.215 Z M 453.119 224.641 C 444.08 224.641 436.22 227.523 430.718 233.025 L 430.718 198.965 L 410.282 198.965 L 410.282 296.167 L 430.718 296.167 L 430.718 261.321 C 430.718 248.352 437.792 242.326 447.617 242.326 C 456.656 242.326 461.896 247.566 461.896 258.963 L 461.896 296.167 L 482.332 296.167 L 482.332 255.819 C 482.332 234.335 469.756 224.641 453.119 224.641 Z M 570.359 261.19 C 570.359 238.527 554.377 224.641 533.679 224.641 C 512.195 224.641 496.082 239.837 496.082 260.928 C 496.082 281.888 511.933 297.215 536.299 297.215 C 549.006 297.215 558.831 293.285 565.381 285.818 L 554.508 274.028 C 549.661 278.613 544.29 280.84 536.823 280.84 C 526.081 280.84 518.614 275.469 516.649 266.692 L 569.966 266.692 C 570.097 264.989 570.359 262.762 570.359 261.19 Z M 533.81 240.099 C 542.98 240.099 549.661 245.863 551.102 254.771 L 516.387 254.771 C 517.828 245.732 524.509 240.099 533.81 240.099 Z M 674.233 224.641 C 663.622 224.641 654.452 228.964 648.819 236.169 C 643.841 228.44 635.457 224.641 625.632 224.641 C 616.593 224.641 608.733 227.785 603.493 233.811 L 603.493 225.689 L 583.974 225.689 L 583.974 296.167 L 604.41 296.167 L 604.41 260.797 C 604.41 248.221 610.829 242.326 619.868 242.326 C 628.383 242.326 633.23 247.566 633.23 258.963 L 633.23 296.167 L 653.666 296.167 L 653.666 260.797 C 653.666 248.221 660.085 242.326 669.255 242.326 C 677.508 242.326 682.617 247.566 682.617 258.963 L 682.617 296.167 L 703.053 296.167 L 703.053 255.819 C 703.053 234.335 691.001 224.641 674.233 224.641 Z M 749.817 224.641 C 738.551 224.641 727.154 227.654 719.425 233.156 L 726.761 247.435 C 731.87 243.374 739.599 240.885 747.066 240.885 C 758.07 240.885 763.31 245.994 763.31 254.771 L 747.066 254.771 C 725.582 254.771 716.805 263.417 716.805 275.862 C 716.805 288.045 726.63 297.215 743.136 297.215 C 753.485 297.215 760.821 293.809 764.62 287.39 L 764.62 296.167 L 783.746 296.167 L 783.746 255.95 C 783.746 234.597 771.301 224.641 749.817 224.641 Z M 748.245 283.46 C 741.04 283.46 736.717 280.054 736.717 274.945 C 736.717 270.229 739.73 266.692 749.293 266.692 L 763.31 266.692 L 763.31 273.897 C 760.952 280.316 755.057 283.46 748.245 283.46 Z M 851.727 248.745 L 883.691 204.467 L 860.766 204.467 L 840.068 234.204 L 818.977 204.467 L 794.873 204.467 L 827.099 249.531 L 793.17 296.167 L 817.536 296.167 L 839.282 264.334 L 861.421 296.167 L 885.918 296.167 Z" style="fill: rgb(255, 255, 255);"/></g></svg>